#!OML:ASF F:\VICON\USERDATA\INSTALL\rory3\rory3.ASF
:FULLY-SPECIFIED
:DEGREES
1
root 3.15388 18.4309 -0.823831 -2.91339 -33.1111 -0.620804
lowerback 3.26604 0.030168 -4.49733
upperback 0.346445 -0.146956 -1.16652
thorax -1.46787 -0.0527478 1.32909
lowerneck -5.46013 -3.20265 -8.01934
upperneck 7.84272 -4.42231 9.1355
head 3.60411 -2.04393 3.88324
rclavicle -4.06515e-014 -7.15625e-015
rhumerus -38.8112 7.39061 -78.6231
rradius 41.0635
rwrist 13.4154
rhand 5.72345 8.61575
rfingers 7.12502
rthumb 31.0598 -18.7743
lclavicle -4.06515e-014 -7.15625e-015
lhumerus -37.4299 -31.8367 99.2771
lradius 38.0484
lwrist -1.84455
lhand 0 0
lfingers 0
lthumb 0 0
rfemur -16.1714 11.4584 10.7961
rtibia 39.2782
rfoot -15.5301 -13.7879
rtoes -5.91312
lfemur -0.344125 -2.52905 -23.6896
ltibia 27.9849
lfoot -24.3168 12.5191
ltoes 1.54275
2
root 3.1238 18.4319 -0.805889 -2.94259 -33.1318 -0.562763
lowerback 3.21599 -0.0393324 -4.48626
upperback 0.377976 -0.235325 -1.17993
thorax -1.40249 -0.0986737 1.31287
lowerneck -5.46276 -3.10231 -7.98005
upperneck 7.70479 -4.26986 9.02187
head 3.54655 -1.97257 3.84992
rclavicle -3.38928e-014 -3.4191e-014
rhumerus -38.6669 7.76605 -77.7256
rradius 43.3392
rwrist 13.5545
rhand 7.83952 8.94357
rfingers 7.12502
rthumb 33.0744 -18.0409
lclavicle -3.38928e-014 -3.4191e-014
lhumerus -37.3775 -31.952 99.1086
lradius 38.3187
lwrist -1.85123
lhand 0 0
lfingers 0
lthumb 0 0
rfemur -16.2716 11.4226 10.5854
rtibia 38.9409
rfoot -15.5756 -13.5433
rtoes -5.33487
lfemur -0.165781 -2.5338 -23.7041
ltibia 27.8589
lfoot -24.3555 12.5953
ltoes 1.20215
3
root 3.09054 18.4307 -0.789021 -2.97878 -33.1906 -0.477564
lowerback 3.14957 -0.0941164 -4.54282
upperback 0.420969 -0.305208 -1.19663
thorax -1.31693 -0.135644 1.32999
lowerneck -5.56446 -3.00113 -7.92438
upperneck 7.59624 -4.11738 8.95203
head 3.51514 -1.89632 3.82622
rclavicle 4.77083e-014 2.38542e-015
rhumerus -38.3977 8.02889 -76.6763
rradius 45.646
rwrist 13.8132
rhand 9.29723 8.81003
rfingers 7.12502
rthumb 34.4595 -17.8705
lclavicle 4.77083e-014 2.38542e-015
lhumerus -37.3452 -32.2469 98.9233
lradius 38.6677
lwrist -1.74892
lhand 0 0
lfingers 0
lthumb 0 0
rfemur -16.3749 11.4926 10.3567
rtibia 38.5677
rfoot -15.6074 -13.4285
rtoes -4.72198
lfemur 0.0236123 -2.65717 -23.7543
ltibia 27.7004
lfoot -24.4868 12.6671
ltoes 1.37193
4
root 3.05523 18.4257 -0.768346 -3.05047 -33.3644 -0.471644
lowerback 3.10534 -0.0724669 -4.51373
upperback 0.47674 -0.270734 -1.18963
thorax -1.2368 -0.120951 1.31926
lowerneck -5.49545 -2.93733 -7.94602
upperneck 7.39363 -4.02572 9.00418
head 3.43644 -1.85204 3.85163
rclavicle -3.55328e-014 -9.54166e-015
rhumerus -38.1339 8.0206 -75.3965
rradius 48.0788
rwrist 14.152
rhand 10.7384 9.38355
rfingers 7.12502
rthumb 35.8264 -16.9754
lclavicle -3.55328e-014 -9.54166e-015
lhumerus -37.3811 -32.6324 98.8372
lradius 39.0104
lwrist -1.70068
lhand 0 0
lfingers 0
lthumb 0 0
rfemur -16.4033 11.6735 10.217
rtibia 38.176
rfoot -15.4813 -13.3801
rtoes -5.2533
lfemur 0.328005 -2.6286 -23.7411
ltibia 27.5256
lfoot -24.5148 12.9059
ltoes 0.786725
5
root 3.02009 18.4237 -0.74981 -3.09959 -33.4762 -0.468904
lowerback 3.15935 -0.0985112 -4.52341
upperback 0.457811 -0.308688 -1.13999
thorax -1.28408 -0.138465 1.37746
lowerneck -5.38813 -2.83024 -8.12379
upperneck 7.3069 -3.88425 9.19499
head 3.38714 -1.78238 3.94898
rclavicle 4.34593e-014 1.19271e-014
rhumerus -37.8782 8.09063 -74.0137
rradius 50.7111
rwrist 14.4915
rhand 11.9168 9.5191
rfingers 7.12502
rthumb 36.942 -16.5603
lclavicle 4.34593e-014 1.19271e-014
lhumerus -37.4104 -32.5189 98.6955
lradius 39.2627
lwrist -1.83752
lhand 0 0
lfingers 0
lthumb 0 0
rfemur -16.474 11.7662 10.0828
rtibia 37.787
rfoot -15.2054 -13.3787
rtoes -6.03638
lfemur 0.606921 -2.4168 -23.6602
ltibia 27.3271
lfoot -24.4169 13.0013
ltoes -0.164377
6
root 2.98534 18.4245 -0.733409 -3.2281 -33.5175 -0.340457
lowerback 3.23897 -0.153387 -4.64337
upperback 0.481431 -0.389704 -1.12245
thorax -1.29886 -0.178412 1.46622
lowerneck -5.27429 -2.75957 -8.13272
upperneck 7.05076 -3.77608 9.15835
head 3.2815 -1.73434 3.94566
rclavicle -2.57178e-015 -5.56597e-015
rhumerus -37.4649 8.08223 -72.5353
rradius 53.4775
rwrist 14.8955
rhand 12.5965 9.19284
rfingers 7.12502
rthumb 37.5847 -16.7182
lclavicle -2.57178e-015 -5.56597e-015
lhumerus -37.2988 -32.2063 98.4186
lradius 39.4614
lwrist -2.23768
lhand 1.8871 28.3618
lfingers 7.12502
lthumb 27.3966 56.3901
rfemur -16.5244 11.8366 9.8244
rtibia 37.4014
rfoot -15.0685 -13.3397
rtoes -6.10796
lfemur 0.894743 -2.48147 -23.7162
ltibia 27.1252
lfoot -24.5029 13.0286
ltoes -0.009717
7
root 2.94928 18.4246 -0.715842 -3.32536 -33.7152 -0.208445
lowerback 3.19734 -0.157272 -4.69118
upperback 0.541294 -0.392678 -1.15582
thorax -1.21367 -0.182538 1.4584
lowerneck -5.26147 -2.73527 -7.93575
upperneck 6.80586 -3.72497 8.91974
head 3.19388 -1.7142 3.8417
rclavicle 5.93496e-014 6.36111e-015
rhumerus -36.904 7.81017 -70.9762
rradius 56.2916
rwrist 15.3956
rhand 12.6358 9.04139
rfingers 7.12502
rthumb 37.6218 -16.8598
lclavicle 5.93496e-014 6.36111e-015
lhumerus -37.225 -32.207 98.149
lradius 39.6763
lwrist -2.61514
lhand 10.3625 28.6978
lfingers 7.12502
lthumb 35.4701 55.1428
rfemur -16.6694 12.1362 9.54093
rtibia 37.0554
rfoot -14.9507 -13.3848
rtoes -5.88876
lfemur 1.19706 -2.63797 -23.8333
ltibia 26.8692
lfoot -24.7324 13.1946
ltoes 0.591275
8
root 2.90914 18.4212 -0.697505 -3.37582 -33.9906 -0.226293
lowerback 3.22442 -0.176631 -4.67917
upperback 0.563454 -0.418273 -1.11666
thorax -1.2043 -0.195789 1.49306
lowerneck -5.34406 -2.62138 -7.83735
upperneck 6.75925 -3.5652 8.84968
head 3.1769 -1.63338 3.81101
rclavicle -3.51725e-014 -1.59028e-015
rhumerus -36.2405 7.54388 -69.3374
rradius 59.12
rwrist 15.7832
rhand 12.223 8.78225
rfingers 7.12502
rthumb 37.2316 -17.222
lclavicle -3.51725e-014 -1.59028e-015
lhumerus -37.2462 -32.1046 97.8945
lradius 39.9643
lwrist -2.59719
lhand 9.79023 28.9829
lfingers 7.12502
lthumb 34.9274 55.5559
rfemur -16.8026 12.5795 9.42103
rtibia 36.7252
rfoot -14.8075 -13.6033
rtoes -6.09875
lfemur 1.53916 -2.42992 -23.7509
ltibia 26.6005
lfoot -24.7045 13.3546
ltoes 0.262048
9
root 2.87166 18.4206 -0.675634 -3.53447 -34.0522 0.0218621
lowerback 3.29907 -0.244973 -4.87236
upperback 0.530028 -0.522147 -1.12352
thorax -1.2726 -0.244987 1.59889
lowerneck -5.36428 -2.50479 -7.76199
upperneck 6.72005 -3.40669 8.80363
head 3.15291 -1.55435 3.79207
rclavicle -8.14396e-014 -1.03368e-014
rhumerus -35.5404 7.16858 -67.573
rradius 61.986
rwrist 16.0542
rhand 11.3933 8.58362
rfingers 7.12502
rthumb 36.4466 -17.6219
lclavicle -8.14396e-014 -1.03368e-014
lhumerus -37.2519 -31.8632 97.6355
lradius 40.2328
lwrist -2.50636
lhand 9.44162 29.0217
lfingers 7.12502
lthumb 34.5965 55.671
rfemur -16.9036 12.6347 9.00824
rtibia 36.4088
rfoot -14.7903 -13.6604
rtoes -6.35716
lfemur 1.8344 -2.25445 -23.9001
ltibia 26.3387
lfoot -24.576 13.3873
ltoes 0.0113315
